<?xml version="1.0" encoding="UTF-8" standalone="no"?>
<!-- Created with Inkscape (http://www.inkscape.org/) -->

<svg
   xmlns:dc="http://purl.org/dc/elements/1.1/"
   xmlns:cc="http://creativecommons.org/ns#"
   xmlns:rdf="http://www.w3.org/1999/02/22-rdf-syntax-ns#"
   xmlns:svg="http://www.w3.org/2000/svg"
   xmlns="http://www.w3.org/2000/svg"
   xmlns:sodipodi="http://sodipodi.sourceforge.net/DTD/sodipodi-0.dtd"
   xmlns:inkscape="http://www.inkscape.org/namespaces/inkscape"
   width="202.22986mm"
   height="271.46649mm"
   viewBox="0 0 716.56249 961.88914"
   id="svg5404"
   version="1.1"
   inkscape:version="0.91 r13725"
   sodipodi:docname="Escudo-club-atletico-penarol.svg">
  <title
     id="title6752">Escudo-club-atletico-penarol</title>
  <defs
     id="defs5406" />
  <sodipodi:namedview
     id="base"
     pagecolor="#ffffff"
     bordercolor="#666666"
     borderopacity="1.0"
     inkscape:pageopacity="0.0"
     inkscape:pageshadow="2"
     inkscape:zoom="0.7"
     inkscape:cx="41.224247"
     inkscape:cy="506.27237"
     inkscape:document-units="px"
     inkscape:current-layer="layer1"
     showgrid="false"
     fit-margin-top="0"
     fit-margin-left="0"
     fit-margin-right="0"
     fit-margin-bottom="0"
     inkscape:window-width="1728"
     inkscape:window-height="1089"
     inkscape:window-x="-8"
     inkscape:window-y="-8"
     inkscape:window-maximized="1" />
  <metadata
     id="metadata5409">
    <rdf:RDF>
      <cc:Work
         rdf:about="">
        <dc:format>image/svg+xml</dc:format>
        <dc:type
           rdf:resource="http://purl.org/dc/dcmitype/StillImage" />
        <dc:title>Escudo-club-atletico-penarol</dc:title>
      </cc:Work>
    </rdf:RDF>
  </metadata>
  <g
     inkscape:label="Calque 1"
     inkscape:groupmode="layer"
     id="layer1"
     transform="translate(-978.86161,-488.5605)">
    <g
       id="g6732">
      <path
         d="m 1337.1429,1449.4296 c -21.3175,-27.4975 -48.58,-42.6175 -84.6388,-54.0575 -20.1375,-6.39 -43.02,-11.6312 -64.2062,-20.7988 -22.6563,-9.8037 -43.3738,-24.0962 -63.8563,-38.5025 -21.7875,-15.3237 -43.3075,-30.7762 -63.2787,-51.3162 -44.725,-45.9975 -81.67629,-117.5063 -81.67629,-195.4962 l 0,-519.2938 c 52.66629,26.695 118.92999,37.6025 181.43749,27.5975 29.8238,-4.7725 58.7913,-14.3075 82.6888,-27.345 41.45,-22.615 67.6425,-55.77375 93.53,-80.7875 25.8875,25.01375 52.08,58.1725 93.53,80.7875 23.8975,13.0375 52.865,22.5725 82.6887,27.345 62.5075,10.005 128.7713,-0.9025 181.4375,-27.5975 l 0,519.2938 c 0,77.9899 -36.9512,149.4987 -81.6762,195.4962 -19.9713,20.54 -41.4913,35.9925 -63.2788,51.3163 -20.4825,14.4062 -41.2,28.6987 -63.8562,38.5024 -21.1863,9.1676 -44.0688,14.4088 -64.2063,20.7988 -36.0587,11.44 -63.3212,26.56 -84.6387,54.0575 z"
         style="fill:#000000;stroke:#000000;stroke-width:1.25;stroke-linecap:butt;stroke-linejoin:miter;stroke-miterlimit:10;stroke-dasharray:none;stroke-opacity:1;fill-opacity:1"
         id="path6097"
         inkscape:connector-curvature="0" />
      <g
         style="fill:#ffe600;fill-opacity:1"
         id="g6703">
        <path
           inkscape:connector-curvature="0"
           id="path6067"
           style="fill:#ffe600;stroke:#000000;stroke-width:1.25;stroke-linecap:butt;stroke-linejoin:miter;stroke-miterlimit:10;stroke-dasharray:none;stroke-opacity:1;fill-opacity:1"
           d="m 1524.8091,1336.4121 0,-482.57875 78.9263,0 0,420.52625 c -4.8925,5.0663 -9.8925,9.8275 -14.9988,14.3563 -8.1787,7.2524 -16.6312,13.935 -25.3125,20.3975 -4.34,3.2312 -8.7375,6.4074 -13.1825,9.5712 -4.445,3.1625 -8.9562,6.3375 -13.4437,9.475 -4.0038,2.8 -7.9963,5.56 -11.9888,8.2525 z" />
        <path
           inkscape:connector-curvature="0"
           id="path6069"
           style="fill:#ffe600;stroke:#000000;stroke-width:1.25;stroke-linecap:butt;stroke-linejoin:miter;stroke-miterlimit:10;stroke-dasharray:none;stroke-opacity:1;fill-opacity:1"
           d="m 1374.5291,1399.8809 0,-546.04755 78.9263,0 0,517.59625 c -9.8988,3.04 -19.9875,5.7862 -29.8613,8.7625 -4.99,1.5037 -9.925,3.08 -14.7125,4.745 -4.7875,1.6662 -9.45,3.4213 -13.9937,5.29 -7.0725,2.9113 -13.8588,6.0988 -20.3588,9.6538 z" />
        <g
           style="fill:#ffe600;fill-opacity:1"
           id="g6690">
          <path
             d="m 1619.8366,814.59835 -11.06,-33.6925 28.625,-20.93 -35.4612,0.1075 -11.06,-33.6925 -10.855,33.75875 -35.4613,0.1075 28.7513,20.75625 -10.8563,33.75875 28.6263,-20.93 28.7512,20.75625 z"
             style="fill:#ffe600;stroke:#000000;stroke-width:1.25;stroke-linecap:butt;stroke-linejoin:miter;stroke-miterlimit:10;stroke-dasharray:none;stroke-opacity:1;fill-opacity:1"
             id="path6071"
             inkscape:connector-curvature="0" />
          <path
             d="m 1054.4491,814.59835 11.06,-33.6925 -28.625,-20.93 35.4613,0.1075 11.06,-33.6925 10.855,33.75875 35.4612,0.1075 -28.7512,20.75625 10.8562,33.75875 -28.6262,-20.93 -28.7513,20.75625 z"
             style="fill:#ffe600;stroke:#000000;stroke-width:1.25;stroke-linecap:butt;stroke-linejoin:miter;stroke-miterlimit:10;stroke-dasharray:none;stroke-opacity:1;fill-opacity:1"
             id="path6073"
             inkscape:connector-curvature="0" />
          <path
             d="m 1518.3004,814.6546 -11.06,-33.6925 28.625,-20.93 -35.46,0.1075 -11.0613,-33.6925 -10.855,33.75875 -35.4612,0.1075 28.7512,20.75625 -10.855,33.75875 28.625,-20.93 28.7513,20.75625 z"
             style="fill:#ffe600;stroke:#000000;stroke-width:1.25;stroke-linecap:butt;stroke-linejoin:miter;stroke-miterlimit:10;stroke-dasharray:none;stroke-opacity:1;fill-opacity:1"
             id="path6075"
             inkscape:connector-curvature="0" />
          <path
             d="m 1416.7654,814.71085 -11.0613,-33.6925 28.6263,-20.93 -35.4613,0.1075 -11.06,-33.6925 -10.8562,33.75875 -35.4613,0.1075 28.7525,20.75625 -10.8562,33.75875 28.625,-20.93 28.7525,20.75625 z"
             style="fill:#ffe600;stroke:#000000;stroke-width:1.25;stroke-linecap:butt;stroke-linejoin:miter;stroke-miterlimit:10;stroke-dasharray:none;stroke-opacity:1;fill-opacity:1"
             id="path6077"
             inkscape:connector-curvature="0" />
          <path
             d="m 1315.2291,814.7671 -11.06,-33.6925 28.625,-20.93 -35.4612,0.1075 -11.06,-33.6925 -10.8563,33.75875 -35.4612,0.1075 28.7525,20.75625 -10.8563,33.75875 28.625,-20.93 28.7525,20.75625 z"
             style="fill:#ffe600;stroke:#000000;stroke-width:1.25;stroke-linecap:butt;stroke-linejoin:miter;stroke-miterlimit:10;stroke-dasharray:none;stroke-opacity:1;fill-opacity:1"
             id="path6079"
             inkscape:connector-curvature="0" />
          <path
             d="m 1213.6929,814.82335 -11.06,-33.6925 28.625,-20.93 -35.4613,0.1075 -11.06,-33.6925 -10.8562,33.75875 -35.46,0.1075 28.7512,20.75625 -10.8562,33.75875 28.6262,-20.93 28.7513,20.75625 z"
             style="fill:#ffe600;stroke:#000000;stroke-width:1.25;stroke-linecap:butt;stroke-linejoin:miter;stroke-miterlimit:10;stroke-dasharray:none;stroke-opacity:1;fill-opacity:1"
             id="path6081"
             inkscape:connector-curvature="0" />
          <path
             d="m 1569.1716,733.40335 -11.0612,-33.6925 28.6262,-20.93 -35.4612,0.1075 -11.06,-33.6925 -10.8563,33.75875 -35.4612,0.1075 28.7512,20.75625 -10.855,33.75875 28.625,-20.93 28.7525,20.75625 z"
             style="fill:#ffe600;stroke:#000000;stroke-width:1.25;stroke-linecap:butt;stroke-linejoin:miter;stroke-miterlimit:10;stroke-dasharray:none;stroke-opacity:1;fill-opacity:1"
             id="path6083"
             inkscape:connector-curvature="0" />
          <path
             d="m 1467.6354,733.4596 -11.06,-33.6925 28.625,-20.93 -35.4613,0.1075 -11.06,-33.6925 -10.8562,33.75875 -35.4613,0.1075 28.7525,20.75625 -10.8562,33.75875 28.625,-20.93 28.7525,20.75625 z"
             style="fill:#ffe600;stroke:#000000;stroke-width:1.25;stroke-linecap:butt;stroke-linejoin:miter;stroke-miterlimit:10;stroke-dasharray:none;stroke-opacity:1;fill-opacity:1"
             id="path6085"
             inkscape:connector-curvature="0" />
          <path
             d="m 1366.0991,733.51585 -11.06,-33.69125 28.625,-20.93125 -35.4612,0.1075 -11.06,-33.6925 -10.8563,33.75875 -35.4612,0.1075 28.7525,20.75625 -10.8563,33.75875 28.6263,-20.93 28.7512,20.75625 z"
             style="fill:#ffe600;stroke:#000000;stroke-width:1.25;stroke-linecap:butt;stroke-linejoin:miter;stroke-miterlimit:10;stroke-dasharray:none;stroke-opacity:1;fill-opacity:1"
             id="path6087"
             inkscape:connector-curvature="0" />
          <path
             d="m 1264.5629,733.5721 -11.06,-33.69125 28.625,-20.93125 -35.4613,0.1075 -11.06,-33.6925 -10.855,33.75875 -35.4612,0.1075 28.7512,20.75625 -10.8562,33.75875 28.6262,-20.93 28.7513,20.75625 z"
             style="fill:#ffe600;stroke:#000000;stroke-width:1.25;stroke-linecap:butt;stroke-linejoin:miter;stroke-miterlimit:10;stroke-dasharray:none;stroke-opacity:1;fill-opacity:1"
             id="path6089"
             inkscape:connector-curvature="0" />
          <path
             d="m 1163.0266,733.62835 -11.06,-33.69125 28.625,-20.93125 -35.46,0.1075 -11.0612,-33.6925 -10.855,33.75875 -35.4613,0.1075 28.7513,20.7575 -10.855,33.7575 28.625,-20.93 28.7512,20.75625 z"
             style="fill:#ffe600;stroke:#000000;stroke-width:1.25;stroke-linecap:butt;stroke-linejoin:miter;stroke-miterlimit:10;stroke-dasharray:none;stroke-opacity:1;fill-opacity:1"
             id="path6091"
             inkscape:connector-curvature="0" />
        </g>
        <path
           inkscape:connector-curvature="0"
           id="path6093"
           style="fill:#ffe600;stroke:#000000;stroke-width:1.25;stroke-linecap:butt;stroke-linejoin:miter;stroke-miterlimit:10;stroke-dasharray:none;stroke-opacity:1;fill-opacity:1"
           d="m 1149.4766,1336.4121 0,-482.57875 -78.9262,0 0,420.52625 c 4.8925,5.0663 9.8925,9.8275 14.9987,14.3563 8.1788,7.2524 16.6313,13.935 25.3125,20.3975 4.34,3.2312 8.7375,6.4074 13.1825,9.5712 4.445,3.1625 8.9563,6.3375 13.4438,9.475 4.0037,2.8 7.9962,5.56 11.9887,8.2525 z" />
        <path
           inkscape:connector-curvature="0"
           id="path6095"
           style="fill:#ffe600;stroke:#000000;stroke-width:1.25;stroke-linecap:butt;stroke-linejoin:miter;stroke-miterlimit:10;stroke-dasharray:none;stroke-opacity:1;fill-opacity:1"
           d="m 1299.7566,1399.8809 0,-546.04755 -78.9262,0 0,517.59625 c 9.8987,3.04 19.9875,5.7862 29.8612,8.7625 4.99,1.5037 9.925,3.08 14.7125,4.745 4.7875,1.6662 9.45,3.4213 13.9938,5.29 7.0725,2.9113 13.8587,6.0988 20.3587,9.6538 z" />
      </g>
    </g>
  </g>
</svg>
